<svg xmlns="http://www.w3.org/2000/svg" viewBox="0 0 15.19 15.6"><defs><style>.cls-1{fill:#e5180e;}</style></defs><title>github-issues</title><g id="Lager_2" data-name="Lager 2"><g id="Lager_1-2" data-name="Lager 1"><path class="cls-1" d="M3.94,0a.51.51,0,1,0,.16,1A1.18,1.18,0,0,1,5,1.41a3.33,3.33,0,0,1,.66,1c.06.15.11.29.16.44a2.42,2.42,0,0,0-.41,2.84l0,0L2.87,4.1a.49.49,0,1,0-.56.81L4.59,6.44A5.36,5.36,0,0,0,4,7.28L.37,9.06a.5.5,0,1,0,.44.88L3.37,8.66a6.47,6.47,0,0,0-.28,1.84s0,.08,0,.13L1.19,13.19a.51.51,0,1,0,.79.65l0,0L3.31,12.1A5.22,5.22,0,0,0,6,15.6,2.57,2.57,0,0,0,7.1,13.5v-6a.5.5,0,1,1,1,0v6A2.57,2.57,0,0,0,9.19,15.6a5.22,5.22,0,0,0,2.69-3.5l1.31,1.72a.51.51,0,0,0,.83-.6l0,0L12.1,10.63s0-.08,0-.12a6.51,6.51,0,0,0-.28-1.84l2.56,1.28a.5.5,0,1,0,.44-.87L11.22,7.28a5.36,5.36,0,0,0-.62-.84l2.28-1.53a.5.5,0,1,0-.56-.81L9.85,5.75l0,0A2.49,2.49,0,0,0,9,2.53l0-.09a3.34,3.34,0,0,1,.66-1A1.18,1.18,0,0,1,10.6,1a.5.5,0,1,0,0-1A2.26,2.26,0,0,0,9,.69a4.37,4.37,0,0,0-.87,1.37A2.32,2.32,0,0,0,7.6,2a2.26,2.26,0,0,0-1,.22l-.06-.16A4.37,4.37,0,0,0,5.69.69,2.26,2.26,0,0,0,4.1,0H3.94Z"/></g></g></svg>